<!DOCTYPE svg PUBLIC "-//W3C//DTD SVG 1.1//EN" "http://www.w3.org/Graphics/SVG/1.1/DTD/svg11.dtd">
<svg fill="#000000" width="800px" height="800px" viewBox="0 0 512.00 512.00" enable-background="new 0 0 512 512" id="Eat_x5F_fruit_x5F_vegetable" version="1.1" xml:space="preserve" xmlns="http://www.w3.org/2000/svg" xmlns:xlink="http://www.w3.org/1999/xlink" stroke="#000000" stroke-width="7.68">
<g id="SVGRepo_bgCarrier" stroke-width="0"/>
<g id="SVGRepo_tracerCarrier" stroke-linecap="round" stroke-linejoin="round"/>
<g id="SVGRepo_iconCarrier"> <g> <rect height="10.759" width="10.76" x="369.059" y="294.671"/> <rect height="10.759" width="10.76" x="413.068" y="261.273"/> <rect height="10.759" width="10.76" x="336.197" y="182.032"/> <rect height="10.759" width="10.76" x="360.828" y="223.655"/> <rect height="10.759" width="10.76" x="407.689" y="335.9"/> <rect height="10.759" transform="matrix(0.7072 0.7071 -0.7071 0.7072 278.8338 3.552)" width="10.759" x="129.749" y="333.009"/> <rect height="10.759" transform="matrix(0.7071 -0.7071 0.7071 0.7071 -267.889 222.9073)" width="10.759" x="129.749" y="429.445"/> <rect height="10.76" transform="matrix(-0.7071 0.7071 -0.7071 -0.7071 402.3633 318.9478)" width="10.76" x="129.749" y="237.422"/> <rect height="10.759" transform="matrix(0.7071 -0.7072 0.7072 0.7071 -179.9111 146.886)" width="10.759" x="81.956" y="285.216"/> <rect height="10.759" transform="matrix(-0.7071 0.7071 -0.7071 -0.7071 518.3967 366.4635)" width="10.759" x="177.922" y="285.216"/> <rect height="10.759" transform="matrix(-0.7071 0.7071 -0.7071 -0.7071 423.7719 601.3829)" width="10.759" x="81.956" y="383.078"/> <rect height="10.759" transform="matrix(-0.7071 -0.7071 0.7071 -0.7071 38.2336 792.7529)" width="10.759" x="177.922" y="383.079"/> <path d="M319.275,131.191h-5v24.38v115.124h10V165.668c67.633,2.633,121.84,58.476,121.84,126.743 c0,46.61-25.617,89.241-66.055,111.34c1.398-6.638,2.369-12.86,2.748-18.122c1.344-18.597-4.574-37.016-16.234-50.533 c-7.242-8.395-16.08-14.326-25.754-17.475c8.195-13.436,6.908-30.433,6.838-31.266l-0.352-4.213l-4.213-0.354 c-0.973-0.082-24-1.849-37.654,11.807c-2.174,2.174-4.123,4.432-5.848,6.725c-2.641-15.066-9.916-29.198-20.879-40.018 l-7.023,7.117c12.09,11.932,19.025,28.518,19.025,45.504v7.706c-6.232-3.097-12.85-4.941-19.725-5.465 c-1.336-0.103-2.686-0.153-4.014-0.153c-15.992,0-30.952,7.133-42.125,20.083c-6.192,7.179-10.745,15.746-13.471,24.981 l-21.691-21.694l37.845-37.845v13.324h10v-47.98c0-20.968-8.245-40.614-23.216-55.316c-10.215-10.036-22.749-16.896-36.37-20.111 c0.853-59.39,28.904-82.198,29.175-82.411l11.604-8.958h-14.659c-9.855,0-18.875,1.226-27.027,3.632 c5.087-49.938,29.303-69.572,29.542-69.76l11.605-8.958h-14.66c-40.062,0-60.159,19.258-70.233,38.201 C121.68,48.212,104.57,41.115,82.271,41.115H67.616l11.6,8.958c0.14,0.108,12.608,10.002,19.715,34.832 c-11.097-3.954-23.649-5.969-37.631-5.969H46.641l11.603,8.958c0.303,0.233,30.308,24.073,35.498,86.474l9.965-0.829 c-3.733-44.891-19.62-71.237-30.045-84.001c21.312,2.152,38.215,10.07,50.365,23.618c22.384,24.96,22.881,62.596,22.348,75.207 h-37.35c-20.388,0-39.643,7.854-54.215,22.115c-15.035,14.7-23.315,34.377-23.315,55.405v144.601 c0,21.129,8.352,40.877,23.516,55.606c14.544,14.131,33.727,21.914,54.015,21.914h50.99c20.326,0,39.536-7.813,54.087-21.998 c4.656-4.531,8.675-9.568,12.029-15.042c11.175,24.581,24.681,37.036,40.212,37.036c9.771,0,18.955-6.064,26.795-11.75 c1.557-1.128,3.566-1.097,5.119,0.079c6.508,4.925,15.422,11.671,25.605,11.671c16.398,0,30.754-13.934,42.699-41.422 c31.939-9.796,60.637-29.79,81.006-56.508c21.547-28.26,32.938-62.029,32.938-97.657 C480.506,203.514,408.178,131.191,319.275,131.191z M122.753,98.193c-3.796-3.097-7.873-5.835-12.246-8.188 c-3.923-18.122-10.692-30.44-16.233-38.028c15.153,2.306,26.673,9.231,34.368,20.665C125.352,81.577,123.625,90.511,122.753,98.193 z M312.51,300.667c7.254-7.253,18.873-8.724,25.23-8.95c-0.203,5.896-1.49,16.305-7.525,23.611 c-1.902-0.207-3.824-0.316-5.764-0.316c-1.326,0-2.678,0.051-4.014,0.153c-6.805,0.519-13.354,2.333-19.529,5.372 C301.775,315.064,305.598,307.58,312.51,300.667z M182.62,331.311l-40.95-40.955l40.953-40.954l40.953,40.952L182.62,331.311z M127.524,386.406l-40.958,40.958l-40.953-40.952l40.958-40.959L127.524,386.406z M45.619,290.359l40.96-40.959l40.95,40.956 l-40.958,40.957L45.619,290.359z M93.642,338.383l40.957-40.957l40.949,40.955l-40.954,40.955L93.642,338.383z M227.535,265.881 v14.29l-37.841-37.84l21.017-21.017C221.584,233.645,227.535,249.281,227.535,265.881z M132.064,107.156 c0.413-8.847,1.97-21.21,6.791-33.223c9.254-23.003,26.874-36.164,52.461-39.235c-9.04,11.584-21.873,34.288-24.673,71.942 c-4.776,2.252-9.177,5.002-13.181,8.251l6.301,7.766c8.523-6.916,19.293-11.214,32.117-12.836 c-9.48,12.292-23.021,37.065-23.922,78.948c-2.623-0.266-5.272-0.408-7.943-0.408h-3.602 C157.044,174.082,156.291,134.793,132.064,107.156z M160.015,198.361c16.113,0,31.39,5.641,43.556,15.951l-20.947,20.948 l-36.899-36.899H160.015z M175.552,242.331l-40.953,40.953L93.65,242.329l40.95-40.951L175.552,242.331z M109.025,198.361h14.451 l-36.895,36.899L65.56,214.236C77.72,203.975,92.963,198.361,109.025,198.361z M41.495,265.881c0-16.655,5.981-32.324,16.91-44.658 l21.106,21.109l-38.017,38.021V265.881z M41.495,300.377L79.5,338.383l-38.006,38.006V300.377z M41.495,410.481v-14.047l38,38 l-20.911,20.911C47.54,442.977,41.495,427.232,41.495,410.481z M109.025,478.002c-15.966,0-31.135-5.551-43.26-15.696l20.801-20.8 l36.495,36.496H109.025z M93.636,434.436l40.959-40.959l40.96,40.961l-40.952,40.964L93.636,434.436z M160.015,478.002h-13.872 l36.482-36.494l20.724,20.725C191.213,472.426,176.017,478.002,160.015,478.002z M210.52,455.261l-20.824-20.825l15.864-15.869 l-7.07-7.07l-15.865,15.869l-40.959-40.959l40.953-40.953l26.33,26.334c-0.548,4.553-0.665,9.191-0.329,13.842 c0.866,11.973,5.151,33.22,12.602,53.348C218.451,444.92,214.865,450.374,210.52,455.261z M358.523,439.925 c-7.205,17.369-19.068,38.073-34.66,38.073c-6.313,0-12.598-4.367-19.57-9.645c-2.578-1.951-5.619-2.93-8.658-2.93 c-2.926,0-5.854,0.908-8.365,2.729c-6.57,4.764-14.148,9.846-20.926,9.846c-15.606,0-27.151-20.758-34.088-38.172 c-8.135-20.418-12.784-42.781-13.661-54.918c-1.155-15.979,3.886-31.753,13.83-43.281c10.006-11.599,23.602-17.566,37.806-16.491 c6.59,0.503,12.906,2.491,18.775,5.911c0.551,0.322,1.123,0.592,1.709,0.827v13.42h10v-13.421c0.584-0.235,1.156-0.506,1.709-0.826 c5.867-3.42,12.184-5.408,18.773-5.911c14.238-1.077,27.799,4.894,37.805,16.491c9.945,11.529,14.986,27.305,13.832,43.281 C371.777,399.535,365.893,422.16,358.523,439.925z M371.344,434.419c2.084-5.827,3.988-11.904,5.627-17.917 c48.152-22.413,79.145-70.843,79.145-124.091c0-73.779-58.693-134.097-131.84-136.739v-14.399 c81.082,2.649,146.23,69.43,146.23,151.138C470.506,355.835,430.217,412.804,371.344,434.419z"/> <path d="M344.496,352.018c7.215,8.363,10.865,19.935,10.012,31.743c-0.387,5.345-1.584,12.267-3.461,20.019l9.719,2.354 c2.006-8.279,3.291-15.766,3.717-21.651c1.043-14.43-3.482-28.644-12.414-38.998L344.496,352.018z"/> <path d="M341.369,433.83l9.236,3.83c2.113-5.096,4.133-10.689,6.004-16.629l-9.537-3.004 C345.289,423.687,343.369,429.004,341.369,433.83z"/> <polygon points="430.838,130.508 440.838,130.508 440.838,118.12 453.227,118.12 453.227,108.12 440.838,108.12 440.838,95.731 430.838,95.731 430.838,108.12 418.449,108.12 418.449,118.12 430.838,118.12 "/> <polygon points="256.672,210.75 266.672,210.75 266.672,198.361 279.061,198.361 279.061,188.361 266.672,188.361 266.672,175.973 256.672,175.973 256.672,188.361 244.283,188.361 244.283,198.361 256.672,198.361 "/> <polygon points="297.846,93.352 307.846,93.352 307.846,80.963 320.234,80.963 320.234,70.963 307.846,70.963 307.846,58.574 297.846,58.574 297.846,70.963 285.457,70.963 285.457,80.963 297.846,80.963 "/> </g> </g>
</svg>