<?xml version="1.0" encoding="UTF-8" standalone="no"?> <svg width="43" height="43" viewBox="0 0 43 43" fill="none" xmlns="http://www.w3.org/2000/svg">
<rect x="0.666992" y="0.640076" width="42" height="42" rx="21" fill="black"/>
<path d="M25.4848 32.1401H17.8485C17.2757 32.1401 16.8939 31.7583 16.8939 31.1855C16.8939 30.6128 17.2757 30.231 17.8485 30.231H20.7121V29.181C16.9894 28.7037 14.0303 25.4583 14.0303 21.6401V19.731C14.0303 19.1583 14.4121 18.7764 14.9848 18.7764C15.5575 18.7764 15.9394 19.1583 15.9394 19.731V21.6401C15.9394 24.7901 18.5166 27.3673 21.6666 27.3673C24.8166 27.3673 27.3939 24.7901 27.3939 21.6401V19.731C27.3939 19.1583 27.7757 18.7764 28.3485 18.7764C28.9212 18.7764 29.303 19.1583 29.303 19.731V21.6401C29.303 25.5537 26.3439 28.7037 22.6212 29.181V30.231H25.4848C26.0575 30.231 26.4394 30.6128 26.4394 31.1855C26.4394 31.7583 26.0575 32.1401 25.4848 32.1401ZM21.6666 25.4583C19.5666 25.4583 17.8485 23.7401 17.8485 21.6401V14.9583C17.8485 12.8583 19.5666 11.1401 21.6666 11.1401C23.7666 11.1401 25.4848 12.8583 25.4848 14.9583V21.6401C25.4848 23.7401 23.7666 25.4583 21.6666 25.4583ZM21.6666 13.0492C20.6166 13.0492 19.7575 13.9083 19.7575 14.9583V21.6401C19.7575 22.6901 20.6166 23.5492 21.6666 23.5492C22.7166 23.5492 23.5757 22.6901 23.5757 21.6401V14.9583C23.5757 13.9083 22.7166 13.0492 21.6666 13.0492Z" fill="white"/>
</svg>
